<svg xmlns="http://www.w3.org/2000/svg" xmlns:xlink="http://www.w3.org/1999/xlink" width="205" height="205" viewBox="0 0 205 205">
  <defs>
    <linearGradient id="linear-gradient" x1="0.5" x2="0.5" y2="1" gradientUnits="objectBoundingBox">
      <stop offset="0" stop-color="#53ffae"/>
      <stop offset="1" stop-color="#0f8"/>
    </linearGradient>
  </defs>
  <g id="Group_746" data-name="Group 746" transform="translate(-728 -2871)">
    <circle id="Ellipse_30" data-name="Ellipse 30" cx="102.5" cy="102.5" r="102.5" transform="translate(728 2871)" fill="url(#linear-gradient)"/>
    <g id="award_1_" data-name="award (1)" transform="translate(789 2931.473)">
      <path id="Path_57" data-name="Path 57" d="M76,0H7.323A7.331,7.331,0,0,0,0,7.323v3.719A26.725,26.725,0,0,0,5.836,27.679a27.192,27.192,0,0,0,12.537,8.629l2.587.862A24.316,24.316,0,0,0,34.337,47.629v3.795A2.444,2.444,0,0,1,31.9,53.865a7.331,7.331,0,0,0-7.323,7.323v2.441H22.132a2.441,2.441,0,0,0-2.441,2.441V78.437H17.25a2.441,2.441,0,1,0,0,4.882H66.07a2.441,2.441,0,1,0,0-4.882H63.629V66.07a2.441,2.441,0,0,0-2.441-2.441H58.747V61.188a7.331,7.331,0,0,0-7.323-7.323,2.444,2.444,0,0,1-2.441-2.441V47.629A24.315,24.315,0,0,0,62.349,37.186l2.728-.868.031-.01A26.633,26.633,0,0,0,83.319,11.042V7.323A7.331,7.331,0,0,0,76,0ZM9.648,24.629A21.828,21.828,0,0,1,4.882,11.042V7.323A2.444,2.444,0,0,1,7.323,4.882h7.742L17.549,27.24a24.045,24.045,0,0,0,.746,3.824,22.066,22.066,0,0,1-8.647-6.435ZM24.573,78.437V68.511H58.747v9.927Zm21.422-35.05A2.44,2.44,0,0,0,44.1,45.766v5.658a7.331,7.331,0,0,0,7.323,7.323,2.444,2.444,0,0,1,2.441,2.441v2.441H29.455V61.188A2.444,2.444,0,0,1,31.9,58.747a7.331,7.331,0,0,0,7.323-7.323V45.766a2.44,2.44,0,0,0-1.894-2.379A19.368,19.368,0,0,1,22.4,26.7L19.977,4.882H63.343L60.918,26.7A19.368,19.368,0,0,1,45.994,43.387ZM78.437,11.042A21.75,21.75,0,0,1,65,31.14a24.037,24.037,0,0,0,.768-3.9L68.255,4.882H76a2.444,2.444,0,0,1,2.441,2.441Zm0,0" transform="translate(0 0)" fill="#fff"/>
      <path id="Path_58" data-name="Path 58" d="M203.311,66.951l-5.485-.778-2.443-4.832a2.441,2.441,0,0,0-4.357,0l-2.443,4.832-5.486.778a2.441,2.441,0,0,0-1.34,4.185l3.935,3.745-.926,5.272a2.441,2.441,0,0,0,3.518,2.594l4.92-2.526,4.92,2.526a2.441,2.441,0,0,0,3.519-2.594l-.926-5.272,3.934-3.745a2.441,2.441,0,0,0-1.34-4.185ZM196.4,72.245a2.44,2.44,0,0,0-.721,2.191l.3,1.724-1.666-.855a2.441,2.441,0,0,0-2.229,0l-1.666.855.3-1.724A2.443,2.443,0,0,0,190,72.245l-1.229-1.169,1.754-.249a2.44,2.44,0,0,0,1.835-1.315l.839-1.66.838,1.659a2.441,2.441,0,0,0,1.836,1.316l1.754.249Zm0,0" transform="translate(-151.545 -50.236)" fill="#fff"/>
    </g>
  </g>
</svg>
