<svg xmlns="http://www.w3.org/2000/svg" xmlns:xlink="http://www.w3.org/1999/xlink" width="170" height="170" viewBox="0 0 170 170">
  <defs>
    <linearGradient id="linear-gradient" x1="0.5" x2="0.5" y2="1" gradientUnits="objectBoundingBox">
      <stop offset="0" stop-color="#4facfe"/>
      <stop offset="1" stop-color="#00f2fe"/>
    </linearGradient>
  </defs>
  <g id="Group_747" data-name="Group 747" transform="translate(-1004 -2888)">
    <circle id="Ellipse_31" data-name="Ellipse 31" cx="85" cy="85" r="85" transform="translate(1004 2888)" fill="url(#linear-gradient)"/>
    <g id="certification" transform="translate(1043 2931.473)">
      <path id="Path_59" data-name="Path 59" d="M393.814,140a1.814,1.814,0,1,0,1.814,1.814A1.815,1.815,0,0,0,393.814,140Zm0,0" transform="translate(-320.888 -114.603)" fill="#fff"/>
      <path id="Path_60" data-name="Path 60" d="M189.1,86.014l2.346-2.345,2.346,2.346a1.815,1.815,0,0,0,2.565,0l2.346-2.346,2.346,2.346a1.815,1.815,0,0,0,2.565,0l2.346-2.346,2.346,2.346a1.814,1.814,0,0,0,2.565-2.566l-3.628-3.628a1.815,1.815,0,0,0-2.565,0l-2.346,2.346-2.346-2.346a1.813,1.813,0,0,0-2.565,0l-2.346,2.346-2.346-2.346a1.813,1.813,0,0,0-2.565,0l-3.628,3.628a1.814,1.814,0,0,0,2.565,2.565Zm0,0" transform="translate(-152.258 -64.905)" fill="#fff"/>
      <path id="Path_61" data-name="Path 61" d="M91.067,0H1.814A1.814,1.814,0,0,0,0,1.814V70.749a1.814,1.814,0,0,0,1.814,1.814H48.255v8.941a1.814,1.814,0,0,0,3.1,1.283l5.974-5.973L63.3,82.788a1.814,1.814,0,0,0,3.1-1.283V72.564H91.067a1.814,1.814,0,0,0,1.814-1.814V1.814A1.814,1.814,0,0,0,91.067,0ZM46.441,47.166A10.885,10.885,0,1,1,57.325,58.051,10.9,10.9,0,0,1,46.441,47.166ZM66.4,58.486a14.513,14.513,0,1,0-18.141,0v3.193H16.1a7.283,7.283,0,0,0-5.213-5.213V16.1A7.283,7.283,0,0,0,16.1,10.885H76.784A7.283,7.283,0,0,0,82,16.1V56.466a7.283,7.283,0,0,0-5.213,5.213H66.4Zm-3.628,18.64-4.16-4.16a1.813,1.813,0,0,0-2.565,0l-4.16,4.16V60.62a14.518,14.518,0,0,0,10.885,0Zm26.486-8.19H66.4V65.307H78.369a1.814,1.814,0,0,0,1.814-1.814,3.632,3.632,0,0,1,3.628-3.628,1.814,1.814,0,0,0,1.814-1.814V14.513A1.814,1.814,0,0,0,83.811,12.7,3.632,3.632,0,0,1,80.183,9.07a1.814,1.814,0,0,0-1.814-1.814H14.513A1.814,1.814,0,0,0,12.7,9.07,3.632,3.632,0,0,1,9.07,12.7a1.814,1.814,0,0,0-1.814,1.814V58.051A1.814,1.814,0,0,0,9.07,59.865,3.632,3.632,0,0,1,12.7,63.493a1.814,1.814,0,0,0,1.814,1.814H48.255v3.628H3.628V3.628H89.253Zm0,0" fill="#fff"/>
      <path id="Path_62" data-name="Path 62" d="M290.513,227.256a7.256,7.256,0,1,0-7.256,7.256A7.265,7.265,0,0,0,290.513,227.256Zm-10.885,0a3.628,3.628,0,1,1,3.628,3.628A3.632,3.632,0,0,1,279.628,227.256Zm0,0" transform="translate(-225.931 -180.09)" fill="#fff"/>
      <path id="Path_63" data-name="Path 63" d="M147.529,140H101.814a1.814,1.814,0,1,0,0,3.628h45.715a1.814,1.814,0,0,0,0-3.628Zm0,0" transform="translate(-81.859 -114.603)" fill="#fff"/>
      <path id="Path_64" data-name="Path 64" d="M117.415,200h-15.6a1.814,1.814,0,1,0,0,3.628h15.6a1.814,1.814,0,1,0,0-3.628Zm0,0" transform="translate(-81.859 -163.718)" fill="#fff"/>
      <path id="Path_65" data-name="Path 65" d="M117.415,260h-15.6a1.814,1.814,0,1,0,0,3.628h15.6a1.814,1.814,0,1,0,0-3.628Zm0,0" transform="translate(-81.859 -212.834)" fill="#fff"/>
    </g>
  </g>
</svg>
