<svg xmlns="http://www.w3.org/2000/svg" xmlns:xlink="http://www.w3.org/1999/xlink" width="170" height="170" viewBox="0 0 170 170">
  <defs>
    <linearGradient id="linear-gradient" x1="0.5" x2="0.5" y2="1" gradientUnits="objectBoundingBox">
      <stop offset="0" stop-color="#ff9e4a"/>
      <stop offset="1" stop-color="#ff7800"/>
    </linearGradient>
  </defs>
  <g id="Group_748" data-name="Group 748" transform="translate(-1262 -2888)">
    <circle id="Ellipse_28" data-name="Ellipse 28" cx="85" cy="85" r="85" transform="translate(1262 2888)" fill="url(#linear-gradient)"/>
    <path id="customer-service" d="M76.64,37.746a38.321,38.321,0,0,0-76.633,0C0,38.1,0,38.02,0,50.5a8.911,8.911,0,0,0,8.9,8.9h0a8.911,8.911,0,0,0,8.9-8.9V38.02a8.911,8.911,0,0,0-8.9-8.9,9,9,0,0,0-1.053.064,31.817,31.817,0,0,1,60.951,0,9.014,9.014,0,0,0-1.054-.064,8.911,8.911,0,0,0-8.9,8.9V50.5a8.912,8.912,0,0,0,8.9,8.9h0c.086,0,.172,0,.257-.007a19.652,19.652,0,0,1-17.5,10.731h-2.8a9.94,9.94,0,1,0,0,6.509h2.8A26.166,26.166,0,0,0,76.647,50.5h0V38.02c0-.092,0-.182-.007-.274ZM8.9,35.629a2.394,2.394,0,0,1,2.391,2.391V50.5A2.394,2.394,0,0,1,8.9,52.89h0A2.394,2.394,0,0,1,6.509,50.5c0-8.265-.006-11.7.005-12.578A2.392,2.392,0,0,1,8.9,35.629ZM38.324,76.81a3.431,3.431,0,1,1,3.431-3.431A3.435,3.435,0,0,1,38.324,76.81ZM70.138,50.5a2.394,2.394,0,0,1-2.391,2.391h0A2.394,2.394,0,0,1,65.354,50.5V38.02a2.391,2.391,0,0,1,4.779-.1C70.142,38.7,70.134,37.753,70.138,50.5Zm0,0" transform="translate(1308.504 2931.473)" fill="#fff"/>
  </g>
</svg>
