<svg xmlns="http://www.w3.org/2000/svg" width="1483.164" height="538.688" viewBox="0 0 1483.164 538.688">
  <g id="Group_749" data-name="Group 749" transform="translate(-186.336 -5765.91)">
    <ellipse id="Ellipse_45" data-name="Ellipse 45" cx="23.972" cy="23.972" rx="23.972" ry="23.972" transform="translate(993.138 5898.221)" fill="#49a7c2"/>
    <ellipse id="Ellipse_46" data-name="Ellipse 46" cx="41.095" cy="41.095" rx="41.095" ry="41.095" transform="translate(1143.27 6157.824)" fill="#df626e"/>
    <ellipse id="Ellipse_47" data-name="Ellipse 47" cx="33.512" cy="33.512" rx="33.512" ry="33.512" transform="translate(977.387 6029.575)" fill="#2b2b2c"/>
    <ellipse id="Ellipse_91" data-name="Ellipse 91" cx="32.512" cy="32.512" rx="32.512" ry="32.512" transform="translate(1008.387 6239.575)" fill="#2b2b2c"/>
    <ellipse id="Ellipse_78" data-name="Ellipse 78" cx="33.512" cy="33.512" rx="33.512" ry="33.512" transform="translate(1376.242 5897.709)" fill="#2b2b2c"/>
    <ellipse id="Ellipse_51" data-name="Ellipse 51" cx="17.367" cy="17.367" rx="17.367" ry="17.367" transform="translate(1567.252 6167.5)" fill="#675ef5"/>
    <ellipse id="Ellipse_52" data-name="Ellipse 52" cx="3.18" cy="3.18" rx="3.18" ry="3.18" transform="translate(1169.094 6082.096)" fill="#ed6f83"/>
    <ellipse id="Ellipse_53" data-name="Ellipse 53" cx="3.18" cy="3.18" rx="3.18" ry="3.18" transform="translate(1512.948 5890.09)" fill="#e1a964"/>
    <ellipse id="Ellipse_56" data-name="Ellipse 56" cx="17.367" cy="17.367" rx="17.367" ry="17.367" transform="translate(367.636 5800.863)" fill="#ff363c"/>
    <ellipse id="Ellipse_57" data-name="Ellipse 57" cx="17.367" cy="17.367" rx="17.367" ry="17.367" transform="translate(186.336 5961.91)" fill="#c4c4c5"/>
    <ellipse id="Ellipse_86" data-name="Ellipse 86" cx="17.367" cy="17.367" rx="17.367" ry="17.367" transform="translate(268.336 5765.91)" fill="#c4c4c5"/>
    <ellipse id="Ellipse_58" data-name="Ellipse 58" cx="17.367" cy="17.367" rx="17.367" ry="17.367" transform="translate(807.409 5981.179)" fill="#51d2fc"/>
    <ellipse id="Ellipse_59" data-name="Ellipse 59" cx="17.367" cy="17.367" rx="17.367" ry="17.367" transform="translate(551.81 6025.275)" fill="#ff8e1b"/>
    <ellipse id="Ellipse_88" data-name="Ellipse 88" cx="3.18" cy="3.18" rx="3.18" ry="3.18" transform="translate(961.618 5845.859)" fill="#e1a964"/>
    <ellipse id="Ellipse_94" data-name="Ellipse 94" cx="3.18" cy="3.18" rx="3.18" ry="3.18" transform="translate(870.618 5848.859)" fill="#e1a964"/>
    <ellipse id="Ellipse_65" data-name="Ellipse 65" cx="3.18" cy="3.18" rx="3.18" ry="3.18" transform="translate(813.37 5916.208)" fill="#c4c4c5"/>
    <ellipse id="Ellipse_92" data-name="Ellipse 92" cx="3.18" cy="3.18" rx="3.18" ry="3.18" transform="translate(913.37 5896.208)" fill="#c4c4c5"/>
    <ellipse id="Ellipse_66" data-name="Ellipse 66" cx="12.231" cy="12.231" rx="12.231" ry="12.231" transform="translate(540.031 6142.746)" fill="#ed6f83"/>
    <ellipse id="Ellipse_67" data-name="Ellipse 67" cx="3.18" cy="3.18" rx="3.18" ry="3.18" transform="translate(1348.748 6012.087)" fill="#c4c4c5"/>
    <ellipse id="Ellipse_68" data-name="Ellipse 68" cx="3.18" cy="3.18" rx="3.18" ry="3.18" transform="translate(360.722 5931.022)" fill="#61c571"/>
    <ellipse id="Ellipse_69" data-name="Ellipse 69" cx="7.828" cy="7.828" rx="7.828" ry="7.828" transform="translate(486.477 6241.916)" fill="#61c571"/>
    <ellipse id="Ellipse_93" data-name="Ellipse 93" cx="7.828" cy="7.828" rx="7.828" ry="7.828" transform="translate(682.477 6029.916)" fill="#61c571"/>
    <ellipse id="Ellipse_79" data-name="Ellipse 79" cx="7.828" cy="7.828" rx="7.828" ry="7.828" transform="translate(1497.477 5979.916)" fill="#61c571"/>
    <ellipse id="Ellipse_71" data-name="Ellipse 71" cx="9.295" cy="9.295" rx="9.295" ry="9.295" transform="translate(432.146 5962.101)" fill="#51d2fc"/>
    <ellipse id="Ellipse_72" data-name="Ellipse 72" cx="12.18" cy="12.18" rx="12.18" ry="12.18" transform="translate(1044.595 6183.993)" fill="#c4c4c5"/>
    <ellipse id="Ellipse_73" data-name="Ellipse 73" cx="3.18" cy="3.18" rx="3.18" ry="3.18" transform="translate(1662.161 6220.376)" fill="#fd383d"/>
    <ellipse id="Ellipse_74" data-name="Ellipse 74" cx="3.18" cy="3.18" rx="3.18" ry="3.18" transform="translate(1555.748 6294.877)" fill="#fd383d"/>
    <ellipse id="Ellipse_75" data-name="Ellipse 75" cx="3.18" cy="3.18" rx="3.18" ry="3.18" transform="translate(1663.14 6040.832)" fill="#61c571"/>
    <ellipse id="Ellipse_76" data-name="Ellipse 76" cx="17.367" cy="17.367" rx="17.367" ry="17.367" transform="translate(1599.051 6099.804)" fill="#675ef5"/>
    <ellipse id="Ellipse_81" data-name="Ellipse 81" cx="38.404" cy="38.404" rx="38.404" ry="38.404" transform="translate(240.075 5848.789)" fill="#df626e"/>
  </g>
</svg>
